<svg width="100%" height="100%" preserveAspectRatio="xMidYMid slice" viewBox="0 0 1440 1092" fill="none" xmlns="http://www.w3.org/2000/svg">
<g clip-path="url(#clip0_1901_38550)">
<rect width="1440" height="1092" fill="white"/>
<mask id="mask0_1901_38550" style="mask-type:alpha" maskUnits="userSpaceOnUse" x="237" y="702" width="2140" height="218">
<rect width="2143.38" height="77.7297" transform="matrix(0.997859 -0.0654031 0 1 237.751 842.184)" fill="white"/>
</mask>
<g mask="url(#mask0_1901_38550)">
<rect opacity="0.2" width="2122.58" height="1179.21" transform="matrix(0.997859 -0.0654031 0 1 461.759 -325.199)" fill="#FBFCFE"/>
<rect opacity="0.2" width="2122.58" height="1179.21" transform="matrix(0.997859 -0.0654031 0 1 924.17 -355.546)" fill="#FBFCFE"/>
<rect opacity="0.2" width="2122.58" height="1179.21" transform="matrix(0.997859 -0.0654031 0 1 225.918 -283.317)" fill="url(#paint0_linear_1901_38550)"/>
</g>
<mask id="mask1_1901_38550" style="mask-type:alpha" maskUnits="userSpaceOnUse" x="-513" y="812" width="2139" height="218">
<rect width="2143.38" height="77.7297" transform="matrix(0.997859 -0.0654031 0 1 -513 952.27)" fill="white"/>
</mask>
<g mask="url(#mask1_1901_38550)">
<rect opacity="0.2" width="2122.58" height="1179.21" transform="matrix(0.997859 -0.0654031 0 1 -288.992 -215.113)" fill="#FBFCFE"/>
<rect opacity="0.2" width="2122.58" height="1179.21" transform="matrix(0.997859 -0.0654031 0 1 173.42 -245.46)" fill="#FBFCFE"/>
<rect opacity="0.2" width="2122.58" height="1179.21" transform="matrix(0.997859 -0.0654031 0 1 -524.833 -173.231)" fill="url(#paint1_linear_1901_38550)"/>
</g>
<mask id="mask2_1901_38550" style="mask-type:alpha" maskUnits="userSpaceOnUse" x="423" y="60" width="1186" height="121">
<rect width="1187.67" height="43.0709" transform="matrix(0.997859 -0.0654031 0 1 423 137.677)" fill="white"/>
</mask>
<g mask="url(#mask2_1901_38550)">
<rect opacity="0.2" width="1176.14" height="653.413" transform="matrix(0.997859 -0.0654031 0 1 547.125 -509.183)" fill="#FBFCFE"/>
<rect opacity="0.2" width="1176.14" height="653.413" transform="matrix(0.997859 -0.0654031 0 1 803.353 -525.999)" fill="#FBFCFE"/>
<rect opacity="0.2" width="1176.14" height="653.413" transform="matrix(0.997859 -0.0654031 0 1 416.443 -485.976)" fill="url(#paint2_linear_1901_38550)"/>
</g>
<mask id="mask3_1901_38550" style="mask-type:alpha" maskUnits="userSpaceOnUse" x="-41" y="129" width="1186" height="121">
<rect width="1187.67" height="43.0709" transform="matrix(0.997859 -0.0654031 0 1 -41 206.677)" fill="white"/>
</mask>
<g mask="url(#mask3_1901_38550)">
<rect opacity="0.2" width="1176.14" height="653.413" transform="matrix(0.997859 -0.0654031 0 1 83.125 -440.183)" fill="#FBFCFE"/>
<rect opacity="0.2" width="1176.14" height="653.413" transform="matrix(0.997859 -0.0654031 0 1 339.353 -456.999)" fill="#FBFCFE"/>
<rect opacity="0.2" width="1176.14" height="653.413" transform="matrix(0.997859 -0.0654031 0 1 -47.5566 -416.976)" fill="url(#paint3_linear_1901_38550)"/>
</g>
<mask id="mask4_1901_38550" style="mask-type:alpha" maskUnits="userSpaceOnUse" x="-609" y="208" width="1186" height="121">
<rect width="1187.67" height="43.0709" transform="matrix(0.997859 -0.0654031 0 1 -609 285.677)" fill="white"/>
</mask>
<g mask="url(#mask4_1901_38550)">
<rect opacity="0.2" width="1176.14" height="653.413" transform="matrix(0.997859 -0.0654031 0 1 -484.875 -361.183)" fill="#FBFCFE"/>
<rect opacity="0.2" width="1176.14" height="653.413" transform="matrix(0.997859 -0.0654031 0 1 -228.647 -377.999)" fill="#FBFCFE"/>
<rect opacity="0.2" width="1176.14" height="653.413" transform="matrix(0.997859 -0.0654031 0 1 -615.557 -337.976)" fill="url(#paint4_linear_1901_38550)"/>
</g>
<mask id="mask5_1901_38550" style="mask-type:alpha" maskUnits="userSpaceOnUse" x="1296" y="25" width="1186" height="121">
<rect width="1187.67" height="43.0709" transform="matrix(0.997859 -0.0654031 0 1 1296 102.677)" fill="white"/>
</mask>
<g mask="url(#mask5_1901_38550)">
<rect opacity="0.2" width="1176.14" height="653.413" transform="matrix(0.997859 -0.0654031 0 1 1420.12 -544.183)" fill="#FBFCFE"/>
<rect opacity="0.2" width="1176.14" height="653.413" transform="matrix(0.997859 -0.0654031 0 1 1289.44 -520.976)" fill="url(#paint5_linear_1901_38550)"/>
</g>
</g>
<defs>
<linearGradient id="paint0_linear_1901_38550" x1="-2.67511e-05" y1="-138.36" x2="2089.81" y2="-340.154" gradientUnits="userSpaceOnUse">
<stop stop-color="#E0E7F0"/>
<stop offset="1" stop-color="#E0E7F0" stop-opacity="0"/>
</linearGradient>
<linearGradient id="paint1_linear_1901_38550" x1="-2.67511e-05" y1="-138.36" x2="2089.81" y2="-340.154" gradientUnits="userSpaceOnUse">
<stop stop-color="#E0E7F0"/>
<stop offset="1" stop-color="#E0E7F0" stop-opacity="0"/>
</linearGradient>
<linearGradient id="paint2_linear_1901_38550" x1="-1.48231e-05" y1="-76.6669" x2="1157.99" y2="-188.483" gradientUnits="userSpaceOnUse">
<stop stop-color="#E0E7F0"/>
<stop offset="1" stop-color="#E0E7F0" stop-opacity="0"/>
</linearGradient>
<linearGradient id="paint3_linear_1901_38550" x1="-1.48231e-05" y1="-76.6669" x2="1157.99" y2="-188.483" gradientUnits="userSpaceOnUse">
<stop stop-color="#E0E7F0"/>
<stop offset="1" stop-color="#E0E7F0" stop-opacity="0"/>
</linearGradient>
<linearGradient id="paint4_linear_1901_38550" x1="-1.48231e-05" y1="-76.6669" x2="1157.99" y2="-188.483" gradientUnits="userSpaceOnUse">
<stop stop-color="#E0E7F0"/>
<stop offset="1" stop-color="#E0E7F0" stop-opacity="0"/>
</linearGradient>
<linearGradient id="paint5_linear_1901_38550" x1="-1.48231e-05" y1="-76.6669" x2="1157.99" y2="-188.483" gradientUnits="userSpaceOnUse">
<stop stop-color="#E0E7F0"/>
<stop offset="1" stop-color="#E0E7F0" stop-opacity="0"/>
</linearGradient>
<clipPath id="clip0_1901_38550">
<rect width="1440" height="1092" fill="white"/>
</clipPath>
</defs>
</svg>
