<svg width="64" height="90" viewBox="0 0 64 90" fill="none" xmlns="http://www.w3.org/2000/svg">
<g clip-path="url(#clip0_1794_28990)">
<rect width="64" height="90" rx="6" fill="white"/>
<rect x="8" y="12" width="17" height="6" rx="3" fill="#E0E7F0"/>
<rect x="16" y="28" width="40" height="4" rx="2" fill="#E0E7F0"/>
<rect x="8" y="28" width="6" height="4" rx="2" fill="#E0E7F0"/>
<rect x="16" y="36" width="40" height="4" rx="2" fill="#EDF1F7"/>
<rect x="8" y="36" width="6" height="4" rx="2" fill="#EDF1F7"/>
<rect x="16" y="44" width="40" height="4" rx="2" fill="#F7F9FC"/>
<rect x="8" y="44" width="6" height="4" rx="2" fill="#F7F9FC"/>
<path d="M14.9166 77.25H23.0833M16.6666 71.4167L19 73.75M19 73.75L21.3333 71.4167M19 73.75V66.75" stroke="#9CADC4" stroke-width="1.5" stroke-miterlimit="10" stroke-linecap="round" stroke-linejoin="round"/>
<path d="M30.8559 68.63V76H32.3519V73.591H34.2879C35.9819 73.591 37.0159 72.601 37.0159 71.105C37.0159 69.631 35.9819 68.63 34.2879 68.63H30.8559ZM32.3519 72.238V69.983H34.2879C35.0909 69.983 35.5309 70.445 35.5309 71.105C35.5309 71.787 35.0909 72.238 34.2879 72.238H32.3519ZM38.1714 68.63V76H40.8884C43.3194 76 44.9364 74.515 44.9364 72.315C44.9364 70.115 43.3194 68.63 40.8884 68.63H38.1714ZM39.6674 74.647V69.983H40.8884C42.4174 69.983 43.4294 70.885 43.4294 72.315C43.4294 73.745 42.4174 74.647 40.8884 74.647H39.6674ZM47.6381 69.983H51.6421V68.63H46.1421V76H47.6381V73.14H51.2131V71.787H47.6381V69.983Z" fill="#6C819D"/>
</g>
<rect x="0.5" y="0.5" width="63" height="89" rx="5.5" stroke="#E0E7F0"/>
<defs>
<clipPath id="clip0_1794_28990">
<rect width="64" height="90" rx="6" fill="white"/>
</clipPath>
</defs>
</svg>
