<svg width="24" height="24" viewBox="0 0 24 24" fill="none" xmlns="http://www.w3.org/2000/svg">
<path vector-effect="non-scaling-stroke" d="M12 14.223C14.2091 14.223 16 12.4321 16 10.223C16 8.01385 14.2091 6.22299 12 6.22299C9.79086 6.22299 8 8.01385 8 10.223C8 12.4321 9.79086 14.223 12 14.223Z" stroke="#1FCCAF" stroke-width="2" stroke-miterlimit="10" stroke-linecap="round" stroke-linejoin="round"/>
<path vector-effect="non-scaling-stroke" d="M18.631 21C17.692 19.389 15.068 18.223 12 18.223C8.93199 18.223 6.30799 19.389 5.36899 21" stroke="#1FCCAF" stroke-width="2" stroke-miterlimit="10" stroke-linecap="round" stroke-linejoin="round"/>
<path vector-effect="non-scaling-stroke" d="M21.368 17.967C22.396 16.294 23 14.331 23 12.223C23 6.14799 18.075 1.22299 12 1.22299C5.925 1.22299 1 6.14799 1 12.223C1 14.331 1.604 16.294 2.632 17.968" stroke="#27DEBF" stroke-width="2" stroke-miterlimit="10" stroke-linecap="round" stroke-linejoin="round"/>
</svg>
