<svg width="24" height="24" viewBox="0 0 24 24" fill="none" xmlns="http://www.w3.org/2000/svg">
<path vector-effect="non-scaling-stroke" d="M1 7V17C1 20.314 3.686 23 7 23H17" stroke="#6CA2FA" stroke-width="2" stroke-miterlimit="10" stroke-linecap="round" stroke-linejoin="round"/>
<path vector-effect="non-scaling-stroke" d="M14 11C15.3807 11 16.5 9.88071 16.5 8.5C16.5 7.11929 15.3807 6 14 6C12.6193 6 11.5 7.11929 11.5 8.5C11.5 9.88071 12.6193 11 14 11Z" stroke="#08D3A6" stroke-width="2" stroke-miterlimit="10" stroke-linecap="round" stroke-linejoin="round"/>
<path vector-effect="non-scaling-stroke" d="M19 19V18C18.536 15.718 16.418 14 14 14C11.582 14 9.464 15.718 9 18V19" stroke="#08D3A6" stroke-width="2" stroke-miterlimit="10" stroke-linecap="round" stroke-linejoin="round"/>
<path vector-effect="non-scaling-stroke" d="M19 19H9C6.791 19 5 17.209 5 15V5C5 2.791 6.791 1 9 1H19C21.209 1 23 2.791 23 5V15C23 17.209 21.209 19 19 19Z" stroke="#005AEC" stroke-width="2" stroke-miterlimit="10" stroke-linecap="round" stroke-linejoin="round"/>
</svg>
