<svg width="24" height="24" viewBox="0 0 24 24" fill="none" xmlns="http://www.w3.org/2000/svg">
<path vector-effect="non-scaling-stroke" d="M8 10H4C2.895 10 2 9.105 2 8V4C2 2.895 2.895 2 4 2H8C9.105 2 10 2.895 10 4V8C10 9.105 9.105 10 8 10Z" stroke="#27DEBF" stroke-width="2" stroke-miterlimit="10" stroke-linecap="round" stroke-linejoin="round"/>
<path vector-effect="non-scaling-stroke" d="M20 10H16C14.895 10 14 9.105 14 8V4C14 2.895 14.895 2 16 2H20C21.105 2 22 2.895 22 4V8C22 9.105 21.105 10 20 10Z" stroke="#27DEBF" stroke-width="2" stroke-miterlimit="10" stroke-linecap="round" stroke-linejoin="round"/>
<path vector-effect="non-scaling-stroke" d="M8 22H4C2.895 22 2 21.105 2 20V16C2 14.895 2.895 14 4 14H8C9.105 14 10 14.895 10 16V20C10 21.105 9.105 22 8 22Z" stroke="#27DEBF" stroke-width="2" stroke-miterlimit="10" stroke-linecap="round" stroke-linejoin="round"/>
<path vector-effect="non-scaling-stroke" d="M20 22H16C14.895 22 14 21.105 14 20V16C14 14.895 14.895 14 16 14H20C21.105 14 22 14.895 22 16V20C22 21.105 21.105 22 20 22Z" stroke="#1FCCAF" stroke-width="2" stroke-miterlimit="10" stroke-linecap="round" stroke-linejoin="round"/>
</svg>
