<svg width="24" height="24" viewBox="0 0 24 24" fill="none" xmlns="http://www.w3.org/2000/svg">
<path vector-effect="non-scaling-stroke" d="M12.7167 14.15C12.7167 15.7332 10.1498 17.0167 6.98333 17.0167C3.8169 17.0167 1.25 15.7332 1.25 14.15M12.7167 14.15C12.7167 12.5668 10.1498 11.2833 6.98333 11.2833C3.8169 11.2833 1.25 12.5668 1.25 14.15M12.7167 14.15V19.8833C12.7167 21.4667 10.15 22.75 6.98333 22.75C3.81662 22.75 1.25 21.4667 1.25 19.8833V14.15M12.7167 17.0167C12.7167 18.6 10.15 19.8833 6.98333 19.8833C3.81662 19.8833 1.25 18.6 1.25 17.0167M15.5833 15.5833H21.3167C22.1083 15.5833 22.75 14.9416 22.75 14.15V2.68333C22.75 1.89173 22.1083 1.25 21.3167 1.25H2.68333C1.89173 1.25 1.25 1.89173 1.25 2.68333V9.85669M9.13333 8.41667C9.13348 7.0961 10.0357 5.94648 11.3184 5.63251C12.6011 5.31854 13.9324 5.92146 14.5424 7.09267C15.1525 8.26388 14.8835 9.70031 13.891 10.5714M4.83333 4.475C5.03124 4.475 5.19167 4.63543 5.19167 4.83333C5.19167 5.03124 5.03124 5.19167 4.83333 5.19167C4.63543 5.19167 4.475 5.03124 4.475 4.83333C4.475 4.63543 4.63543 4.475 4.83333 4.475ZM19.1667 11.6417C19.3646 11.6417 19.525 11.8021 19.525 12C19.525 12.1979 19.3646 12.3583 19.1667 12.3583C18.9688 12.3583 18.8083 12.1979 18.8083 12C18.8083 11.8021 18.9688 11.6417 19.1667 11.6417Z" stroke="currentColor" stroke-width="2" stroke-linecap="round" stroke-linejoin="round"/>
</svg>
