<svg width="24" height="24" viewBox="0 0 24 24" fill="none" xmlns="http://www.w3.org/2000/svg">
<path vector-effect="non-scaling-stroke" d="M16.7725 21.9221L12.0269 19.2766C12.0131 19.2692 11.9975 19.2692 11.9838 19.2766L7.24004 21.9266C6.31604 22.4427 5.23438 21.6104 5.41038 20.5168L6.31421 14.9086C6.31696 14.8931 6.31146 14.8766 6.30046 14.8656L2.25704 10.6856C1.59154 9.99807 1.95821 8.79907 2.87671 8.65698L8.46196 7.79257C8.47663 7.78982 8.49038 7.77973 8.49679 7.76598L10.8664 2.6629C11.3284 1.66832 12.664 1.6674 13.1269 2.66198L15.502 7.76323C15.5084 7.7779 15.5221 7.78798 15.5368 7.78982L21.123 8.64873C22.0424 8.7899 22.41 9.9889 21.7445 10.6773L17.7047 14.861C17.6937 14.872 17.6891 14.8885 17.6919 14.9041L18.6003 20.5113C18.7772 21.604 17.6974 22.4372 16.7725 21.9221V21.9221Z" stroke="currentColor" stroke-width="2" stroke-miterlimit="10" stroke-linecap="round" stroke-linejoin="round"/>
</svg>
