<svg width="24" height="24" viewBox="0 0 24 24" fill="none" xmlns="http://www.w3.org/2000/svg">
<path vector-effect="non-scaling-stroke" d="M17.0004 11.0001V3.00095M17.0004 11.0001C18.6569 11.0001 19.9999 12.3428 20.0001 13.9993C20.0003 15.6558 18.6569 16.9989 17.0004 16.9994M17.0004 11.0001C16.2046 11.0001 15.4414 11.3163 14.8789 11.8791C14.3163 12.442 14.0004 13.2053 14.0007 14.0011C14.0015 15.6576 15.3439 16.9999 17.0004 16.9994M17.0004 20.999V16.9994M7.00151 9.0003L7.00151 20.999M7.00151 9.0003C5.34501 8.99981 4.00159 7.65668 4.00183 6.00018C4.00208 4.34368 5.345 3.00095 7.00151 3.00095C8.6584 3.00168 10.0012 4.34506 10.0012 6.00195C10.0004 7.65845 8.65801 9.00079 7.00151 9.0003Z" stroke="currentColor" stroke-width="2" stroke-linecap="round" stroke-linejoin="round"/>
</svg>
