<svg width="24" height="24" viewBox="0 0 24 24" fill="none" xmlns="http://www.w3.org/2000/svg">
<path vector-effect="non-scaling-stroke" d="M9.01736 1.0985C10.7361 -0.366168 13.2639 -0.366168 14.9826 1.0985C15.7191 1.72615 16.6349 2.10546 17.5995 2.18243C19.8505 2.36206 21.6379 4.14953 21.8176 6.40052C21.8945 7.36512 22.2738 8.28086 22.9015 9.01736C24.3662 10.7361 24.3662 13.2639 22.9015 14.9826C22.2738 15.7191 21.8945 16.6349 21.8176 17.5995C21.6379 19.8505 19.8505 21.6379 17.5995 21.8176C16.6349 21.8945 15.7191 22.2738 14.9826 22.9015C13.2639 24.3662 10.7361 24.3662 9.01736 22.9015C8.28086 22.2738 7.36512 21.8945 6.40052 21.8176C4.14953 21.6379 2.36206 19.8505 2.18243 17.5995C2.10546 16.6349 1.72615 15.7191 1.0985 14.9826C-0.366168 13.2639 -0.366168 10.7361 1.0985 9.01736C1.72615 8.28086 2.10546 7.36512 2.18243 6.40052C2.36206 4.14953 4.14953 2.36206 6.40052 2.18243C7.36512 2.10546 8.28086 1.72615 9.01736 1.0985Z" fill="currentColor" stroke="none"/>
<path vector-effect="non-scaling-stroke" d="M8.39996 15.6H14.4" stroke="white" stroke-width="2" stroke-miterlimit="10" stroke-linecap="round" stroke-linejoin="round"/>
<path vector-effect="non-scaling-stroke" d="M8.39996 12H13.2" stroke="white" stroke-width="2" stroke-miterlimit="10" stroke-linecap="round" stroke-linejoin="round"/>
<path vector-effect="non-scaling-stroke" d="M10.8 15.6V9.60001C10.8 8.27401 11.874 7.20001 13.2 7.20001C14.088 7.20001 14.8632 7.68241 15.2784 8.40001" stroke="white" stroke-width="2" stroke-miterlimit="10" stroke-linecap="round" stroke-linejoin="round"/>
</svg>
