<svg width="24" height="24" viewBox="0 0 24 24" fill="none" xmlns="http://www.w3.org/2000/svg">
<path vector-effect="non-scaling-stroke" d="M2.327 19.58L9 11L17.556 22M18 8C18 9.10457 17.1046 10 16 10C14.8954 10 14 9.10457 14 8C14 6.89543 14.8954 6 16 6C17.1046 6 18 6.89543 18 8ZM18 22H6C3.791 22 2 20.209 2 18V6C2 3.791 3.791 2 6 2H18C20.209 2 22 3.791 22 6V18C22 20.209 20.209 22 18 22Z" stroke="currentColor" stroke-width="2" stroke-miterlimit="10" stroke-linecap="round" stroke-linejoin="round"/>
</svg>
