<svg width="24" height="24" viewBox="0 0 24 24" fill="none" xmlns="http://www.w3.org/2000/svg">
<path vector-effect="non-scaling-stroke" d="M21.68 7.42999C23.18 10.09 21.3 16.15 15.33 16.24H11.72L10.2 22.24H5.32L5.56 21M13.95 7.11999C14.1416 6.59447 14.0573 6.00794 13.7256 5.55759C13.3939 5.10723 12.8587 4.85286 12.3 4.87999H9.91L8.91 9.35999H11.2C12.5072 9.29317 13.6201 8.38661 13.95 7.11999ZM1.81 18.74L5.81 1.73999H14.1C16.59 1.73999 19.36 3.52999 18.53 7.31999C17.8616 10.552 14.969 12.8375 11.67 12.74H8.18L6.69 18.74H1.81Z" stroke="currentColor" stroke-width="2" stroke-linecap="round" stroke-linejoin="round"/>
</svg>
