<svg width="24" height="24" viewBox="0 0 24 24" fill="none" xmlns="http://www.w3.org/2000/svg">
<path vector-effect="non-scaling-stroke" d="M22.409 16.992L19.497 14.08C18.709 13.292 17.432 13.292 16.644 14.08L14.229 16.495C11.198 15.228 8.771 12.801 7.504 9.77L9.92 7.355C10.708 6.567 10.708 5.29 9.92 4.503L7.008 1.591C6.22 0.803 4.943 0.803 4.155 1.591L2.771 2.975C1.333 4.413 0.725997 6.476 1.116 8.472C2.533 15.732 8.268 21.467 15.528 22.885C17.524 23.275 19.587 22.668 21.025 21.23L22.41 19.845C23.197 19.057 23.197 17.78 22.409 16.992V16.992Z" stroke="currentColor" stroke-width="2" stroke-miterlimit="10" stroke-linecap="round" stroke-linejoin="round"/>
</svg>
