<svg width="24" height="24" viewBox="0 0 24 24" fill="none" xmlns="http://www.w3.org/2000/svg">
<path vector-effect="non-scaling-stroke" d="M16.462 9.52602C17.5599 9.52602 18.45 8.63596 18.45 7.53802C18.45 6.44008 17.5599 5.55002 16.462 5.55002C15.3641 5.55002 14.474 6.44008 14.474 7.53802C14.474 8.63596 15.3641 9.52602 16.462 9.52602Z" stroke="#27DEBF" stroke-width="2" stroke-miterlimit="10" stroke-linecap="round" stroke-linejoin="round"/>
<path vector-effect="non-scaling-stroke" d="M8.028 11.755L1 10.35" stroke="#1FCCAF" stroke-width="2" stroke-miterlimit="10" stroke-linecap="round" stroke-linejoin="round"/>
<path vector-effect="non-scaling-stroke" d="M1 10.35L5.217 6.13299L12.245 4.72699" stroke="#1FCCAF" stroke-width="2" stroke-miterlimit="10" stroke-linecap="round" stroke-linejoin="round"/>
<path vector-effect="non-scaling-stroke" d="M12.245 15.972L13.65 23" stroke="#1FCCAF" stroke-width="2" stroke-miterlimit="10" stroke-linecap="round" stroke-linejoin="round"/>
<path vector-effect="non-scaling-stroke" d="M13.65 23L17.867 18.783L19.273 11.755" stroke="#1FCCAF" stroke-width="2" stroke-miterlimit="10" stroke-linecap="round" stroke-linejoin="round"/>
<path vector-effect="non-scaling-stroke" d="M12.245 15.972C12.245 15.972 16.627 14.401 20.348 10.68C24.069 6.959 22.787 1.213 22.787 1.213C22.787 1.213 17.04 -0.0679964 13.32 3.652C9.59995 7.372 8.02795 11.755 8.02795 11.755" stroke="#27DEBF" stroke-width="2" stroke-miterlimit="10" stroke-linecap="round" stroke-linejoin="round"/>
<path vector-effect="non-scaling-stroke" d="M9.16099 18.52C9.19199 16.494 7.50499 14.808 5.47999 14.839C4.73199 14.85 3.94399 15.087 3.26099 15.77C0.698986 18.332 1.13499 22.866 1.13499 22.866C1.13499 22.866 5.66899 23.301 8.23099 20.74C8.91299 20.056 9.14899 19.268 9.16099 18.52Z" stroke="#27DEBF" stroke-width="2" stroke-miterlimit="10" stroke-linecap="round" stroke-linejoin="round"/>
</svg>
