<svg width="24" height="24" viewBox="0 0 24 24" fill="none" xmlns="http://www.w3.org/2000/svg">
<path vector-effect="non-scaling-stroke" d="M19.845 13.561C19.945 13.056 20 12.534 20 12C20 11.466 19.945 10.944 19.845 10.439L21.651 8.95C22.153 8.536 22.283 7.818 21.958 7.254L21.089 5.746C20.764 5.182 20.078 4.935 19.469 5.164L17.271 5.989C16.492 5.305 15.582 4.771 14.58 4.43L14.195 2.114C14.087 1.471 13.532 1 12.881 1H11.143C10.492 1 9.93699 1.471 9.82999 2.114L9.44399 4.43C8.44199 4.771 7.53199 5.305 6.75299 5.989L4.55499 5.164C3.94499 4.936 3.25999 5.182 2.93499 5.746L2.06499 7.254C1.73999 7.818 1.86999 8.536 2.37199 8.95L4.17799 10.439C4.07799 10.944 4.02299 11.465 4.02299 12C4.02299 12.535 4.07799 13.056 4.17799 13.561L2.37199 15.05C1.86999 15.464 1.73999 16.182 2.06499 16.746L2.93399 18.254C3.25899 18.818 3.94499 19.065 4.55399 18.836L6.75199 18.011C7.53099 18.695 8.44099 19.229 9.44299 19.57L9.82799 21.886C9.93699 22.529 10.492 23 11.143 23H12.881C13.532 23 14.087 22.529 14.194 21.886L14.579 19.57C15.581 19.229 16.492 18.695 17.27 18.011L19.468 18.836C20.077 19.065 20.763 18.819 21.088 18.254L21.957 16.746C22.282 16.182 22.153 15.464 21.65 15.05L19.845 13.561Z" stroke="currentColor" stroke-width="2" stroke-miterlimit="10" stroke-linecap="round" stroke-linejoin="round"/>
<path vector-effect="non-scaling-stroke" d="M12.012 15C13.6688 15 15.012 13.6569 15.012 12C15.012 10.3431 13.6688 9 12.012 9C10.3551 9 9.01199 10.3431 9.01199 12C9.01199 13.6569 10.3551 15 12.012 15Z" stroke="currentColor" stroke-width="2" stroke-miterlimit="10" stroke-linecap="round" stroke-linejoin="round"/>
</svg>
