<svg width="24" height="24" viewBox="0 0 24 24" fill="none" xmlns="http://www.w3.org/2000/svg">
<path vector-effect="non-scaling-stroke" d="M21.6736 17L22.5587 16.5346L22.5586 16.5345L21.6736 17ZM14.6702 3.68399L13.7852 4.14946L13.7852 4.14948L14.6702 3.68399ZM9.32881 3.68399L8.44375 3.21853L8.44373 3.21856L9.32881 3.68399ZM2.3264 17L1.44132 16.5346L1.44129 16.5346L2.3264 17ZM11 14C11 14.5523 11.4477 15 12 15C12.5523 15 13 14.5523 13 14H11ZM13 7.99999C13 7.44771 12.5523 6.99999 12 6.99999C11.4477 6.99999 11 7.44771 11 7.99999H13ZM13 18C13 17.4477 12.5523 17 12 17C11.4477 17 11 17.4477 11 18H13ZM11 18.01C11 18.5623 11.4477 19.01 12 19.01C12.5523 19.01 13 18.5623 13 18.01H11ZM22.5586 16.5345L15.5553 3.21851L13.7852 4.14948L20.7885 17.4655L22.5586 16.5345ZM15.5553 3.21853C13.9998 0.260816 9.99924 0.260816 8.44375 3.21853L10.2139 4.14946C11.0197 2.61717 12.9793 2.61717 13.7852 4.14946L15.5553 3.21853ZM8.44373 3.21856L1.44132 16.5346L3.21148 17.4654L10.2139 4.14943L8.44373 3.21856ZM1.44129 16.5346C-0.0159363 19.306 1.74895 23 4.99665 23V21C3.52168 21 2.32573 19.15 3.2115 17.4654L1.44129 16.5346ZM4.99665 23H19.0033V21H4.99665V23ZM19.0033 23C22.251 23 24.0159 19.306 22.5587 16.5346L20.7885 17.4654C21.6742 19.15 20.4783 21 19.0033 21V23ZM13 14V7.99999H11V14H13ZM11 18V18.01H13V18H11Z" stroke="none" fill="currentColor" stroke-width="0" stroke-miterlimit="10" stroke-linecap="round" stroke-linejoin="round"/>
</svg>
