<svg width="82" height="24" viewBox="0 0 82 24" fill="none" xmlns="http://www.w3.org/2000/svg">
<path d="M30.0848 6.13291L25.8446 6.52253V7.58704C24.8111 6.75056 23.433 6.34493 21.7104 6.50321C18.1858 6.82708 15.2176 9.974 15.2176 14.1788C15.2176 18.4103 18.1858 20.9851 21.7104 20.6612C23.433 20.503 24.8111 19.8441 25.8446 18.8177V19.8822L30.0848 19.4925V6.13291ZM22.585 16.9615C20.7299 17.132 19.3783 15.8723 19.3783 13.7965C19.3783 11.7473 20.7299 10.2127 22.585 10.0422C24.3075 9.88392 25.8446 11.1532 25.8446 13.2023C25.8446 15.2781 24.3075 16.8033 22.585 16.9615Z" fill="#0D1B2E"/>
<path d="M41.4685 4.6877C39.7989 4.84111 38.3944 5.58227 37.3873 6.73932V5.4619L33.1471 5.85152V19.2112L37.3873 18.8215V12.6208C37.3873 10.0393 38.4739 8.79511 40.1434 8.6417C41.495 8.51751 42.4225 9.4968 42.4225 11.067V18.3589L46.6362 17.9717V9.77493C46.6362 6.42172 44.5691 4.40279 41.4685 4.6877Z" fill="#0D1B2E"/>
<path d="M63.5218 3.72039e-07L59.2816 0.389619V4.51461C58.2481 3.67813 56.87 3.2725 55.1475 3.43078C51.6228 3.75465 48.6547 6.90157 48.6547 11.1064C48.6547 15.3378 51.6228 17.9127 55.1475 17.5888C56.87 17.4305 58.2481 16.7716 59.2816 15.7452V16.8097L63.5218 16.4201V3.72039e-07ZM56.022 13.8891C54.1669 14.0596 52.8154 12.7999 52.8154 10.7241C52.8154 8.67489 54.1669 7.14022 56.022 6.96977C57.7446 6.81148 59.2816 8.08073 59.2816 10.1299C59.2816 12.2057 57.7446 13.7308 56.022 13.8891Z" fill="#0D1B2E"/>
<path d="M80.5768 1.49334L76.3366 1.88296V2.94748C75.3031 2.111 73.925 1.70537 72.2024 1.86365C68.6778 2.18752 65.7096 5.33444 65.7096 9.53927C65.7096 13.7707 68.6778 16.3455 72.2024 16.0217C73.925 15.8634 75.3031 15.2045 76.3366 14.1781V15.2426L80.5768 14.853V1.49334ZM73.077 12.322C71.2219 12.4924 69.8703 11.2328 69.8703 9.15695C69.8703 7.10776 71.2219 5.57309 73.077 5.40264C74.7995 5.24435 76.3366 6.5136 76.3366 8.56278C76.3366 10.6386 74.7995 12.1637 73.077 12.322Z" fill="#0D1B2E"/>
<path d="M16.8282 22.4537L8.74539 14.3077L16.2982 4.67181L11.051 5.15396L5.00872 12.7882L4.3727 12.8466V5.76761L0 6.16941V24L4.3727 23.5982V16.8918L5.30024 16.8065L11.104 22.9797L16.8282 22.4537Z" fill="#0D1B2E"/>
<path d="M78.5171 17.921C80.0698 17.7784 81.3285 18.9267 81.3285 20.4859C81.3285 22.0086 80.0256 23.322 78.5156 23.3214L19.9951 23.2985L78.5171 17.921Z" fill="#27DEBF"/>
</svg>
