<svg width="82" height="24" viewBox="0 0 82 24" fill="none" xmlns="http://www.w3.org/2000/svg">
<path d="M30.4148 6.13291L26.1746 6.52253V7.58704C25.1411 6.75056 23.763 6.34493 22.0404 6.50321C18.5158 6.82708 15.5476 9.974 15.5476 14.1788C15.5476 18.4103 18.5158 20.9851 22.0404 20.6612C23.763 20.503 25.1411 19.8441 26.1746 18.8177V19.8822L30.4148 19.4925V6.13291ZM22.915 16.9615C21.0599 17.132 19.7083 15.8723 19.7083 13.7965C19.7083 11.7473 21.0599 10.2127 22.915 10.0422C24.6375 9.88392 26.1746 11.1532 26.1746 13.2023C26.1746 15.2781 24.6375 16.8033 22.915 16.9615Z" fill="white"/>
<path d="M41.7985 4.6877C40.1289 4.84111 38.7244 5.58227 37.7173 6.73932V5.4619L33.4771 5.85152V19.2112L37.7173 18.8215V12.6208C37.7173 10.0393 38.8039 8.79511 40.4735 8.6417C41.825 8.51751 42.7525 9.4968 42.7525 11.067V18.3589L46.9662 17.9717V9.77493C46.9662 6.42172 44.8991 4.40279 41.7985 4.6877Z" fill="white"/>
<path d="M63.8518 3.72039e-07L59.6116 0.389619V4.51461C58.5781 3.67813 57.2 3.2725 55.4775 3.43078C51.9528 3.75465 48.9847 6.90157 48.9847 11.1064C48.9847 15.3378 51.9528 17.9127 55.4775 17.5888C57.2 17.4305 58.5781 16.7716 59.6116 15.7452V16.8097L63.8518 16.4201V3.72039e-07ZM56.352 13.8891C54.4969 14.0596 53.1454 12.7999 53.1454 10.7241C53.1454 8.67489 54.4969 7.14022 56.352 6.96977C58.0746 6.81148 59.6116 8.08073 59.6116 10.1299C59.6116 12.2057 58.0746 13.7308 56.352 13.8891Z" fill="white"/>
<path d="M80.9068 1.49334L76.6666 1.88296V2.94748C75.6331 2.111 74.255 1.70537 72.5324 1.86365C69.0078 2.18752 66.0396 5.33444 66.0396 9.53927C66.0396 13.7707 69.0078 16.3455 72.5324 16.0217C74.255 15.8634 75.6331 15.2045 76.6666 14.1781V15.2426L80.9068 14.853V1.49334ZM73.407 12.322C71.5519 12.4924 70.2003 11.2328 70.2003 9.15695C70.2003 7.10776 71.5519 5.57309 73.407 5.40264C75.1295 5.24435 76.6666 6.5136 76.6666 8.56278C76.6666 10.6386 75.1295 12.1637 73.407 12.322Z" fill="white"/>
<path d="M17.1583 22.4537L9.07539 14.3077L16.6282 4.67181L11.381 5.15396L5.33873 12.7882L4.7027 12.8466V5.76761L0.330002 6.16941V24L4.7027 23.5982V16.8918L5.63024 16.8065L11.434 22.9797L17.1583 22.4537Z" fill="white"/>
<path d="M78.8471 17.921C80.3998 17.7784 81.6584 18.9267 81.6584 20.4859C81.6584 22.0086 80.3556 23.322 78.8456 23.3214L20.3251 23.2985L78.8471 17.921Z" fill="#27DEBF"/>
</svg>
