<svg width="24" height="24" viewBox="0 0 24 24" fill="none" xmlns="http://www.w3.org/2000/svg">
<path vector-effect="non-scaling-stroke" d="M16.4621 9.52605C17.5601 9.52605 18.4501 8.63599 18.4501 7.53805C18.4501 6.44011 17.5601 5.55005 16.4621 5.55005C15.3642 5.55005 14.4741 6.44011 14.4741 7.53805C14.4741 8.63599 15.3642 9.52605 16.4621 9.52605Z" stroke="currentColor" stroke-width="2" stroke-miterlimit="10" stroke-linecap="round" stroke-linejoin="round"/>
<path vector-effect="non-scaling-stroke" d="M8.028 11.7551L1 10.3501" stroke="currentColor" stroke-width="2" stroke-miterlimit="10" stroke-linecap="round" stroke-linejoin="round"/>
<path vector-effect="non-scaling-stroke" d="M1 10.3501L5.217 6.13305L12.245 4.72705" stroke="currentColor" stroke-width="2" stroke-miterlimit="10" stroke-linecap="round" stroke-linejoin="round"/>
<path vector-effect="non-scaling-stroke" d="M12.2451 15.9722L13.6501 23.0002" stroke="currentColor" stroke-width="2" stroke-miterlimit="10" stroke-linecap="round" stroke-linejoin="round"/>
<path vector-effect="non-scaling-stroke" d="M13.6499 23.0001L17.8669 18.7831L19.2729 11.7551" stroke="currentColor" stroke-width="2" stroke-miterlimit="10" stroke-linecap="round" stroke-linejoin="round"/>
<path vector-effect="non-scaling-stroke" d="M12.2448 15.9721C12.2448 15.9721 16.6268 14.4011 20.3478 10.6801C24.0688 6.95907 22.7868 1.21306 22.7868 1.21306C22.7868 1.21306 17.0398 -0.0679355 13.3198 3.65206C9.59983 7.37206 8.02783 11.7551 8.02783 11.7551" stroke="currentColor" stroke-width="2" stroke-miterlimit="10" stroke-linecap="round" stroke-linejoin="round"/>
<path vector-effect="non-scaling-stroke" d="M9.16105 18.52C9.19205 16.494 7.50505 14.808 5.48005 14.839C4.73205 14.85 3.94405 15.087 3.26105 15.77C0.699047 18.332 1.13505 22.866 1.13505 22.866C1.13505 22.866 5.66905 23.301 8.23105 20.74C8.91305 20.056 9.14905 19.268 9.16105 18.52Z" stroke="currentColor" stroke-width="2" stroke-miterlimit="10" stroke-linecap="round" stroke-linejoin="round"/>
</svg>
