<svg width="20" height="20" viewBox="0 0 20 20" fill="none" xmlns="http://www.w3.org/2000/svg">
<path vector-effect="non-scaling-stroke" d="M19.6631 8.68813C20.3223 8.00563 19.9581 6.81646 19.0465 6.67646L13.5073 5.82479C13.4923 5.82229 13.4798 5.81229 13.4731 5.79812L11.1181 0.738958C10.659 -0.246875 9.33396 -0.246042 8.87646 0.739792L6.52479 5.80146C6.51813 5.81646 6.50563 5.82646 6.49063 5.82812L0.952294 6.68563C0.040627 6.82646 -0.322706 8.01562 0.337294 8.69729L4.34729 12.8423C4.35813 12.8531 4.36313 12.8698 4.36063 12.8856L3.46479 18.4473C3.28979 19.5315 4.36229 20.3573 5.27896 19.8448L9.98313 17.2165C9.99646 17.209 10.0123 17.209 10.0256 17.2165L14.7323 19.8398C15.6498 20.3515 16.7206 19.524 16.5456 18.4406L15.644 12.8798C15.6415 12.864 15.6465 12.8481 15.6573 12.8365L19.6631 8.68813Z" fill="currentColor"/>
</svg>
