<svg width="28" height="28" viewBox="0 0 28 28" fill="none" xmlns="http://www.w3.org/2000/svg">
<path d="M12.0001 19.3333H20.6667M12.0001 14H20.6667M12.0001 8.66668H20.6667M9.33341 19.3333C9.33341 20.0697 8.73646 20.6667 8.00008 20.6667C7.2637 20.6667 6.66675 20.0697 6.66675 19.3333C6.66675 18.597 7.2637 18 8.00008 18C8.73646 18 9.33341 18.597 9.33341 19.3333ZM9.33341 14C9.33341 14.7364 8.73646 15.3333 8.00008 15.3333C7.2637 15.3333 6.66675 14.7364 6.66675 14C6.66675 13.2636 7.2637 12.6667 8.00008 12.6667C8.73646 12.6667 9.33341 13.2636 9.33341 14ZM9.33341 8.66668C9.33341 9.40306 8.73646 10 8.00008 10C7.2637 10 6.66675 9.40306 6.66675 8.66668C6.66675 7.9303 7.2637 7.33334 8.00008 7.33334C8.73646 7.33334 9.33341 7.9303 9.33341 8.66668Z" stroke="#475A76" stroke-width="1.5" stroke-miterlimit="10" stroke-linecap="round" stroke-linejoin="round"/>
</svg>
