<svg width="24" height="24" viewBox="0 0 24 24" fill="none" xmlns="http://www.w3.org/2000/svg">
<path vector-effect="non-scaling-stroke" d="M12 14C14.2091 14 16 12.2091 16 10C16 7.79086 14.2091 6 12 6C9.79086 6 8 7.79086 8 10C8 12.2091 9.79086 14 12 14Z" stroke="#1FCCAF" stroke-width="2" stroke-miterlimit="10" stroke-linecap="round" stroke-linejoin="round"/>
<path vector-effect="non-scaling-stroke" d="M18.963 21.87C18.63 19.143 15.638 17 12 17C8.36299 17 5.37099 19.142 5.03699 21.869" stroke="#1FCCAF" stroke-width="2" stroke-miterlimit="10" stroke-linecap="round" stroke-linejoin="round"/>
<path vector-effect="non-scaling-stroke" d="M2.126 19C2.044 18.68 2 18.345 2 18V6C2 3.791 3.791 2 6 2H18C20.209 2 22 3.791 22 6V18C22 20.209 20.209 22 18 22H6C4.136 22 2.57 20.725 2.126 19Z" stroke="#27DEBF" stroke-width="2" stroke-miterlimit="10" stroke-linecap="round" stroke-linejoin="round"/>
</svg>
