<svg width="24" height="24" viewBox="0 0 24 24" fill="none" xmlns="http://www.w3.org/2000/svg">
<path vector-effect="non-scaling-stroke" d="M1 4V18C1 20.209 2.791 22 5 22H21C22.105 22 23 21.105 23 20V8C23 6.895 22.105 6 21 6H3C1.895 6 1 5.105 1 4ZM1 4C1 2.895 1.895 2 3 2H21M19 14C19 15.1046 18.1046 16 17 16C15.8954 16 15 15.1046 15 14C15 12.8954 15.8954 12 17 12C18.1046 12 19 12.8954 19 14Z" stroke="currentColor" stroke-width="2" stroke-miterlimit="10" stroke-linecap="round" stroke-linejoin="round"/>
</svg>
